<svg aria-hidden="true" style="position: absolute; width: 0; height: 0; overflow: hidden;" version="1.1" xmlns="http://www.w3.org/2000/svg" xmlns:xlink="http://www.w3.org/1999/xlink">
<defs>

<symbol id="e-mail" viewBox="0 0 85 64">
<path d="M77.333 0h-69.333c-4.412 0-8 3.589-8 8v48c0 4.411 3.589 8 8 8h69.333c4.411 0 8-3.589 8-8v-48c0-4.412-3.589-8-8-8zM77.333 5.333c0.362 0 0.707 0.075 1.022 0.206l-35.689 30.932-35.689-30.932c0.315-0.131 0.66-0.206 1.022-0.206h69.333zM77.333 58.667h-69.333c-1.471 0-2.667-1.195-2.667-2.667v-44.826l35.586 30.841c0.503 0.435 1.125 0.651 1.747 0.651s1.245-0.216 1.747-0.651l35.586-30.841v44.826c0 1.471-1.195 2.667-2.667 2.667z"></path>
</symbol>

<symbol id="facebook" viewBox="0 0 35 64">
<path d="M26.659 10.627h5.843v-10.176c-1.008-0.139-4.475-0.451-8.512-0.451-8.424 0-14.195 5.299-14.195 15.037v8.963h-9.296v11.376h9.296v28.624h11.397v-28.621h8.92l1.416-11.376h-10.339v-7.837c0.003-3.288 0.888-5.539 5.469-5.539z"></path>
</symbol>

<symbol id="instagram" viewBox="0 0 64 64">
<path d="M63.937 18.816c-0.15-3.401-0.7-5.738-1.487-7.764-0.813-2.15-2.063-4.075-3.701-5.676-1.6-1.625-3.538-2.888-5.664-3.688-2.037-0.788-4.363-1.338-7.764-1.488-3.426-0.163-4.514-0.2-13.203-0.2s-9.777 0.038-13.19 0.188c-3.401 0.15-5.738 0.7-7.764 1.488-2.151 0.813-4.076 2.063-5.676 3.701-1.625 1.6-2.888 3.538-3.688 5.664-0.788 2.038-1.338 4.363-1.488 7.764-0.163 3.426-0.2 4.514-0.2 13.203s0.038 9.777 0.188 13.19c0.15 3.4 0.7 5.738 1.488 7.764 0.813 2.15 2.075 4.075 3.7 5.676 1.6 1.625 3.538 2.888 5.664 3.688 2.038 0.788 4.363 1.338 7.764 1.487 3.413 0.15 4.501 0.188 13.19 0.188s9.777-0.037 13.19-0.188c3.401-0.15 5.738-0.7 7.764-1.487 4.301-1.663 7.702-5.064 9.365-9.364 0.787-2.038 1.338-4.364 1.488-7.764 0.15-3.413 0.188-4.501 0.188-13.19s-0.013-9.777-0.163-13.19zM58.174 44.946c-0.138 3.126-0.663 4.813-1.1 5.939-1.075 2.788-3.288 5.001-6.077 6.077-1.125 0.438-2.825 0.963-5.939 1.1-3.376 0.15-4.388 0.188-12.927 0.188s-9.564-0.037-12.928-0.188c-3.126-0.137-4.813-0.662-5.939-1.1-1.387-0.513-2.65-1.325-3.675-2.388-1.063-1.038-1.875-2.288-2.388-3.675-0.438-1.125-0.963-2.826-1.1-5.939-0.15-3.376-0.188-4.389-0.188-12.928s0.037-9.564 0.188-12.927c0.137-3.126 0.662-4.813 1.1-5.939 0.513-1.388 1.325-2.65 2.401-3.676 1.037-1.063 2.288-1.875 3.675-2.388 1.125-0.438 2.826-0.963 5.939-1.1 3.376-0.15 4.389-0.188 12.927-0.188 8.552 0 9.564 0.038 12.928 0.188 3.126 0.138 4.813 0.663 5.939 1.1 1.387 0.512 2.65 1.325 3.675 2.388 1.062 1.038 1.875 2.288 2.388 3.676 0.437 1.125 0.963 2.825 1.1 5.939 0.15 3.376 0.188 4.388 0.188 12.927s-0.037 9.54-0.188 12.915z"></path>
<path d="M32.119 15.565c-9.077 0-16.441 7.364-16.441 16.441s7.364 16.441 16.441 16.441c9.077 0 16.441-7.364 16.441-16.441s-7.364-16.441-16.441-16.441zM32.119 42.671c-5.888 0-10.665-4.776-10.665-10.665s4.776-10.665 10.665-10.665c5.889 0 10.665 4.776 10.665 10.665s-4.776 10.665-10.665 10.665z"></path>
<path d="M53.048 14.915c0 2.12-1.718 3.838-3.838 3.838s-3.838-1.719-3.838-3.838c0-2.12 1.719-3.838 3.838-3.838s3.838 1.718 3.838 3.838z"></path>
</symbol>

<symbol id="linkedin" viewBox="0 0 64 64">
<path d="M63.984 64v-0.003h0.016v-23.472c0-11.483-2.472-20.328-15.896-20.328-6.453 0-10.784 3.541-12.552 6.899h-0.187v-5.827h-12.728v42.728h13.253v-21.157c0-5.571 1.056-10.957 7.955-10.957 6.797 0 6.899 6.357 6.899 11.315v20.803h13.24z"></path>
<path d="M1.056 21.272h13.269v42.728h-13.269v-42.728z"></path>
<path d="M7.685 0c-4.243 0-7.685 3.443-7.685 7.685s3.443 7.757 7.685 7.757c4.243 0 7.685-3.515 7.685-7.757-0.003-4.243-3.445-7.685-7.685-7.685v0z"></path>
</symbol>

<symbol id="logo-1" viewBox="0 0 58 64">
<path d="M7.68 0l9.354 8.855h26.093v24.701l9.354 8.855v-42.411h-44.8z"></path>
<path d="M0 8.482v41.2h43.52v-16.377l-26.21-24.813-17.31-0.010zM35.23 43.655h-28.343v-27.709h2.003v25.833h26.34v1.876z"></path>
<path d="M12.533 57.323l1.047-2.156h0.875l-1.525 2.875v1.675h-0.794v-1.675l-1.528-2.875h0.878l1.047 2.156zM17.026 58.658h-1.763l-0.369 1.059h-0.822l1.719-4.55h0.709l1.722 4.55h-0.825l-0.372-1.059zM15.486 58.020h1.319l-0.659-1.888-0.659 1.888zM20.142 58.489c0-0.21 0.057-0.403 0.172-0.578 0.115-0.177 0.341-0.386 0.678-0.628-0.177-0.223-0.301-0.413-0.372-0.569-0.069-0.156-0.103-0.307-0.103-0.453 0-0.356 0.108-0.637 0.325-0.844 0.217-0.208 0.508-0.312 0.875-0.312 0.331 0 0.602 0.098 0.813 0.294 0.212 0.194 0.319 0.434 0.319 0.722 0 0.19-0.048 0.365-0.144 0.525-0.096 0.158-0.253 0.317-0.472 0.475l-0.309 0.225 0.878 1.037c0.127-0.25 0.191-0.528 0.191-0.834h0.659c0 0.56-0.131 1.020-0.394 1.378l0.669 0.791h-0.881l-0.256-0.303c-0.325 0.244-0.712 0.366-1.163 0.366s-0.81-0.119-1.081-0.356c-0.269-0.24-0.403-0.551-0.403-0.934zM21.648 59.173c0.256 0 0.496-0.085 0.719-0.256l-0.994-1.172-0.097 0.069c-0.25 0.19-0.375 0.406-0.375 0.65 0 0.21 0.068 0.381 0.203 0.513s0.317 0.197 0.544 0.197zM21.229 56.242c0 0.175 0.107 0.395 0.322 0.659l0.347-0.237 0.097-0.078c0.129-0.115 0.194-0.261 0.194-0.441 0-0.119-0.045-0.22-0.134-0.303-0.090-0.086-0.203-0.128-0.341-0.128-0.148 0-0.266 0.050-0.353 0.15s-0.131 0.226-0.131 0.378zM29.495 58.236c-0.046 0.485-0.225 0.864-0.538 1.138-0.312 0.271-0.728 0.406-1.247 0.406-0.363 0-0.682-0.085-0.959-0.256-0.275-0.173-0.487-0.418-0.637-0.734s-0.228-0.684-0.234-1.103v-0.425c0-0.429 0.076-0.807 0.228-1.134s0.37-0.579 0.653-0.756c0.285-0.177 0.615-0.266 0.988-0.266 0.502 0 0.906 0.136 1.213 0.409s0.484 0.658 0.534 1.156h-0.788c-0.038-0.327-0.133-0.562-0.288-0.706-0.152-0.146-0.376-0.219-0.672-0.219-0.344 0-0.608 0.126-0.794 0.378-0.183 0.25-0.277 0.618-0.281 1.103v0.403c0 0.492 0.087 0.867 0.262 1.125 0.177 0.258 0.435 0.387 0.775 0.387 0.31 0 0.544-0.070 0.7-0.209s0.255-0.372 0.297-0.697h0.788zM33.836 57.561c0 0.446-0.077 0.837-0.231 1.175-0.154 0.336-0.375 0.594-0.663 0.775-0.285 0.179-0.614 0.269-0.987 0.269-0.369 0-0.698-0.090-0.988-0.269-0.288-0.181-0.51-0.438-0.669-0.772-0.156-0.333-0.235-0.718-0.237-1.153v-0.256c0-0.444 0.078-0.835 0.234-1.175 0.158-0.34 0.38-0.599 0.666-0.778 0.288-0.181 0.617-0.272 0.988-0.272s0.699 0.090 0.984 0.269c0.288 0.177 0.509 0.433 0.666 0.769 0.156 0.333 0.236 0.722 0.238 1.166v0.253zM33.045 57.323c0-0.504-0.096-0.891-0.288-1.159-0.19-0.269-0.459-0.403-0.809-0.403-0.342 0-0.609 0.134-0.803 0.403-0.192 0.267-0.29 0.645-0.294 1.134v0.262c0 0.5 0.097 0.886 0.291 1.159 0.196 0.273 0.467 0.409 0.813 0.409 0.35 0 0.619-0.133 0.806-0.4 0.19-0.267 0.284-0.656 0.284-1.169v-0.237z"></path>
</symbol>

<symbol id="logo-2" viewBox="0 0 49 64">
<path d="M20.895 3.612h0.168c0.311 0 0.648 0.031 0.981 0.059 1.468 0.103 2.925 0.323 4.359 0.657v-3.524c-1.476-0.37-2.981-0.61-4.499-0.717-0.576-0.044-1.189-0.072-1.818-0.088h-0.526c-3.046 0.011-6.079 0.403-9.029 1.164-3.36 0.838-6.586 2.15-9.58 3.897v34.95c2.883-1.567 5.951-2.762 9.132-3.559 2.511-0.641 5.078-1.035 7.665-1.177h0.103c0.433-0.022 0.866-0.034 1.311-0.038v-3.58c-3.361 0.043-6.706 0.488-9.963 1.324-1.205 0.313-2.369 0.651-3.462 1.027l-1.245 0.422v-27.251l0.532-0.257c4.063-1.927 8.457-3.048 12.943-3.302 0.037-0.003 0.075-0.003 0.112 0 0.495-0.025 0.993-0.038 1.482-0.038h0.561c0.258 0.006 0.517 0.013 0.775 0.028z"></path>
<path d="M29.675 7.302c-0.819 0-1.628-0.028-2.41-0.088-0.934-0.069-1.893-0.181-2.802-0.335-0.554-0.094-1.099-0.207-1.628-0.329v34.549c2.241 0.555 4.542 0.826 6.85 0.807 3.046-0.012 6.078-0.402 9.029-1.161 3.361-0.839 6.587-2.151 9.583-3.897v-34.327c-2.883 1.566-5.95 2.762-9.129 3.562-3.102 0.797-6.291 1.206-9.493 1.218zM43.489 7.899l1.245-0.419v27.26l-0.532 0.257c-2.042 0.972-4.175 1.738-6.367 2.288-2.662 0.689-5.399 1.043-8.148 1.055-0.822 0-1.638-0.034-2.429-0.103l-0.853-0.075v-28.033l0.993 0.066c0.722 0.047 1.47 0.069 2.282 0.069 3.49-0.012 6.965-0.458 10.346-1.327 1.161-0.307 2.317-0.651 3.462-1.036z"></path>
<path d="M3.369 51.954c-0.179-0.186-0.395-0.332-0.634-0.428s-0.495-0.142-0.752-0.132c-0.274-0.004-0.546 0.047-0.8 0.15-0.233 0.093-0.445 0.232-0.623 0.41-0.176 0.178-0.313 0.391-0.402 0.626-0.098 0.246-0.146 0.508-0.143 0.773v4.67c-0.011 0.329 0.052 0.656 0.184 0.958 0.11 0.239 0.269 0.453 0.467 0.626 0.187 0.157 0.406 0.27 0.641 0.332 0.227 0.064 0.462 0.096 0.697 0.097 0.26 0.003 0.517-0.053 0.753-0.163 0.233-0.102 0.445-0.249 0.623-0.432 0.173-0.181 0.312-0.394 0.408-0.626 0.1-0.235 0.151-0.489 0.149-0.745v-0.523h-1.22v0.416c0.004 0.142-0.021 0.284-0.072 0.416-0.040 0.099-0.1 0.189-0.178 0.263-0.076 0.061-0.162 0.107-0.255 0.135-0.082 0.027-0.168 0.042-0.255 0.044-0.109 0.013-0.219-0.004-0.32-0.048s-0.188-0.114-0.253-0.203c-0.115-0.188-0.171-0.406-0.162-0.626v-4.354c-0.008-0.241 0.044-0.481 0.149-0.698 0.063-0.099 0.153-0.177 0.259-0.227s0.223-0.069 0.339-0.055c0.105-0.004 0.21 0.018 0.305 0.064s0.177 0.114 0.24 0.199c0.137 0.179 0.208 0.4 0.202 0.626v0.404h1.208v-0.476c0.002-0.279-0.048-0.557-0.149-0.817-0.090-0.245-0.229-0.468-0.408-0.657z"></path>
<path d="M10.62 51.9c-0.389-0.329-0.88-0.51-1.389-0.513-0.249 0.001-0.495 0.046-0.729 0.131-0.237 0.085-0.456 0.215-0.644 0.382-0.202 0.182-0.364 0.405-0.473 0.654-0.123 0.285-0.183 0.594-0.177 0.904v4.479c-0.008 0.315 0.052 0.628 0.177 0.917 0.11 0.241 0.272 0.454 0.473 0.626 0.187 0.173 0.406 0.307 0.644 0.394 0.233 0.086 0.48 0.13 0.729 0.131 0.249-0.001 0.495-0.045 0.729-0.131 0.243-0.088 0.467-0.222 0.66-0.394 0.195-0.175 0.352-0.388 0.461-0.626 0.125-0.289 0.186-0.602 0.177-0.917v-4.479c0.006-0.311-0.055-0.619-0.177-0.904-0.109-0.247-0.265-0.469-0.461-0.654zM10.050 57.938c0.010 0.119-0.006 0.239-0.048 0.352s-0.109 0.213-0.195 0.296c-0.161 0.135-0.364 0.209-0.574 0.209s-0.413-0.074-0.574-0.209c-0.086-0.083-0.153-0.184-0.195-0.296s-0.059-0.232-0.048-0.352v-4.479c-0.010-0.119 0.006-0.239 0.048-0.352s0.109-0.213 0.195-0.296c0.161-0.135 0.364-0.209 0.574-0.209s0.413 0.074 0.574 0.209c0.086 0.083 0.153 0.184 0.195 0.296s0.059 0.232 0.048 0.352v4.479z"></path>
<path d="M20.144 59.938v-8.478h-1.174l-1.541 4.488h-0.022l-1.554-4.488h-1.161v8.478h1.211v-5.158h0.022l1.186 3.646h0.604l1.196-3.646h0.022v5.158h1.211z"></path>
<path d="M27.025 52.054c-0.186-0.209-0.422-0.368-0.685-0.463-0.283-0.092-0.58-0.137-0.878-0.131h-1.8v8.478h1.208v-3.311h0.623c0.377 0.017 0.752-0.063 1.090-0.232 0.275-0.153 0.504-0.376 0.663-0.648 0.14-0.225 0.234-0.477 0.277-0.739 0.047-0.319 0.069-0.642 0.065-0.964 0.012-0.407-0.028-0.814-0.118-1.211-0.081-0.293-0.234-0.562-0.445-0.779zM26.402 54.639c-0.005 0.154-0.043 0.304-0.112 0.441-0.069 0.13-0.178 0.235-0.311 0.297-0.179 0.080-0.374 0.117-0.57 0.106h-0.551v-2.882h0.623c0.188-0.009 0.375 0.027 0.545 0.106 0.125 0.072 0.224 0.181 0.283 0.313 0.066 0.149 0.102 0.31 0.106 0.473 0 0.178 0 0.366 0 0.563s0.012 0.401 0 0.582h-0.013z"></path>
<path d="M32.748 51.459h-0.99l-1.868 8.478h1.208l0.355-1.822h1.647l0.355 1.822h1.208l-1.915-8.478zM31.633 56.961l0.595-3.073h0.022l0.592 3.073h-1.208z"></path>
<path d="M40.553 56.567h-0.022l-1.825-5.108h-1.161v8.478h1.208v-5.098h0.025l1.846 5.098h1.136v-8.478h-1.208v5.108z"></path>
<path d="M47.935 51.459l-0.971 3.371h-0.025l-0.971-3.371h-1.28l1.66 4.895v3.584h1.208v-3.584l1.66-4.895h-1.28z"></path>
<path d="M0 62.332h0.582v1.634h0.395v-1.634h0.579v-0.335h-1.557v0.335z"></path>
<path d="M4.894 61.997l-0.763 1.969h0.42l0.162-0.447h0.785l0.168 0.447h0.43l-0.782-1.969h-0.42zM4.832 63.186l0.268-0.729 0.268 0.729h-0.535z"></path>
<path d="M9.733 63.239h0.455v0.254c-0.133 0.106-0.297 0.165-0.467 0.166-0.079 0.004-0.159-0.010-0.231-0.043s-0.136-0.082-0.186-0.145c-0.104-0.15-0.156-0.331-0.146-0.513 0-0.438 0.19-0.657 0.567-0.657 0.099-0.010 0.199 0.016 0.28 0.074s0.14 0.142 0.165 0.239l0.389-0.075c-0.084-0.385-0.361-0.579-0.834-0.579-0.253-0.007-0.499 0.084-0.688 0.254-0.099 0.098-0.176 0.216-0.225 0.347s-0.069 0.271-0.059 0.41c-0.011 0.269 0.079 0.533 0.252 0.739 0.096 0.099 0.213 0.177 0.342 0.226s0.267 0.071 0.405 0.062c0.308 0.009 0.607-0.104 0.834-0.313v-0.776h-0.853v0.332z"></path>
<path d="M14.674 61.997h-0.399v1.969h1.379v-0.335h-0.981v-1.634z"></path>
<path d="M18.852 61.997h-0.398v1.969h0.398v-1.969z"></path>
<path d="M22.937 63.311l-0.806-1.315h-0.386v1.969h0.37v-1.286l0.791 1.286h0.395v-1.969h-0.364v1.315z"></path>
<path d="M26.63 63.098h0.981v-0.335h-0.981v-0.432h1.055v-0.335h-1.454v1.969h1.494v-0.335h-1.096v-0.532z"></path>
<path d="M35.584 62.773h-0.775v-0.776h-0.395v1.969h0.395v-0.861h0.775v0.861h0.395v-1.969h-0.395v0.776z"></path>
<path d="M39.299 63.098h0.984v-0.335h-0.984v-0.432h1.059v-0.335h-1.454v1.969h1.491v-0.335h-1.096v-0.532z"></path>
<path d="M44.336 63.099c0.343-0.053 0.517-0.235 0.517-0.548 0.010-0.084-0.003-0.169-0.037-0.246s-0.088-0.144-0.156-0.193c-0.178-0.090-0.377-0.13-0.576-0.116h-0.834v1.969h0.395v-0.823h0.078c0.084-0.005 0.169 0.010 0.246 0.044 0.058 0.036 0.106 0.085 0.14 0.144l0.43 0.626h0.473l-0.24-0.385c-0.106-0.19-0.255-0.352-0.436-0.473zM43.938 62.826h-0.293v-0.495h0.311c0.136-0.011 0.272 0.005 0.402 0.047 0.029 0.026 0.051 0.057 0.066 0.093s0.022 0.074 0.020 0.112c-0.002 0.038-0.012 0.076-0.030 0.11s-0.044 0.063-0.075 0.086c-0.13 0.040-0.266 0.056-0.402 0.047z"></path>
<path d="M48.135 63.098h0.981v-0.335h-0.981v-0.432h1.059v-0.335h-1.457v1.969h1.495v-0.335h-1.096v-0.532z"></path>
</symbol>

<symbol id="logo-3" viewBox="0 0 61 64">
<path d="M9.444 62.206c0.022 0.001 0.044 0.005 0.065 0.014s0.039 0.021 0.054 0.037l0.306 0.321c-0.238 0.26-0.532 0.468-0.861 0.609-0.386 0.154-0.803 0.229-1.221 0.219-0.394 0.008-0.784-0.062-1.149-0.204-0.328-0.131-0.623-0.327-0.865-0.576-0.247-0.258-0.437-0.561-0.559-0.89-0.134-0.367-0.2-0.753-0.195-1.142-0.005-0.391 0.066-0.78 0.211-1.145 0.134-0.331 0.335-0.634 0.593-0.89 0.261-0.251 0.574-0.448 0.919-0.58 0.377-0.139 0.779-0.209 1.183-0.204 0.376-0.009 0.749 0.055 1.099 0.186 0.303 0.125 0.582 0.299 0.823 0.514l-0.257 0.343c-0.018 0.024-0.040 0.045-0.065 0.062-0.030 0.020-0.067 0.029-0.103 0.026-0.040-0.003-0.078-0.015-0.111-0.036l-0.138-0.091-0.191-0.117c-0.083-0.043-0.168-0.081-0.257-0.113-0.114-0.039-0.23-0.069-0.348-0.091-0.15-0.026-0.303-0.039-0.456-0.036-0.291-0.003-0.58 0.049-0.85 0.153-0.252 0.097-0.479 0.244-0.666 0.431-0.191 0.199-0.338 0.432-0.433 0.686-0.108 0.29-0.161 0.597-0.157 0.905-0.005 0.313 0.048 0.624 0.157 0.919 0.093 0.252 0.238 0.483 0.425 0.682 0.175 0.185 0.393 0.33 0.635 0.423 0.25 0.099 0.518 0.148 0.789 0.146 0.156 0.002 0.312-0.007 0.467-0.029 0.252-0.029 0.495-0.113 0.708-0.244 0.107-0.067 0.208-0.143 0.302-0.226 0.039-0.036 0.091-0.057 0.146-0.058z"></path>
<path d="M18.288 60.593c0.005 0.387-0.065 0.772-0.207 1.134-0.125 0.329-0.321 0.629-0.577 0.881s-0.564 0.449-0.905 0.578c-0.75 0.272-1.578 0.272-2.328 0-0.339-0.132-0.645-0.329-0.9-0.58-0.255-0.256-0.453-0.559-0.582-0.89-0.276-0.735-0.276-1.538 0-2.273 0.131-0.331 0.328-0.635 0.582-0.894 0.257-0.243 0.563-0.433 0.9-0.558 0.749-0.277 1.579-0.277 2.328 0 0.34 0.132 0.648 0.329 0.903 0.58 0.252 0.254 0.449 0.553 0.578 0.879 0.142 0.365 0.212 0.752 0.207 1.142zM17.484 60.593c0.006-0.31-0.043-0.618-0.146-0.912-0.086-0.252-0.225-0.484-0.41-0.682-0.18-0.188-0.401-0.334-0.647-0.43-0.545-0.199-1.147-0.199-1.692 0-0.246 0.096-0.467 0.243-0.647 0.43-0.187 0.197-0.328 0.429-0.413 0.682-0.195 0.594-0.195 1.23 0 1.824 0.086 0.252 0.227 0.485 0.413 0.682 0.18 0.186 0.401 0.332 0.647 0.427 0.546 0.194 1.147 0.194 1.692 0 0.246-0.095 0.467-0.24 0.647-0.427 0.184-0.199 0.323-0.431 0.41-0.682 0.103-0.294 0.152-0.602 0.146-0.912z"></path>
<path d="M24.321 61.549l0.080 0.204c0.031-0.073 0.057-0.139 0.088-0.204 0.029-0.069 0.062-0.136 0.1-0.201l1.956-3.388c0.038-0.058 0.073-0.095 0.111-0.106 0.052-0.015 0.107-0.021 0.161-0.018h0.578v5.511h-0.685v-4.052c0-0.051 0-0.109 0-0.171-0.004-0.063-0.004-0.127 0-0.19l-1.968 3.436c-0.025 0.051-0.065 0.095-0.115 0.125s-0.109 0.046-0.168 0.046h-0.111c-0.060 0.001-0.118-0.015-0.169-0.045s-0.090-0.074-0.115-0.126l-2.025-3.458c0 0.066 0 0.131 0 0.197s0 0.124 0 0.175v4.052h-0.662v-5.5h0.578c0.054-0.003 0.109 0.003 0.161 0.018 0.047 0.023 0.085 0.060 0.107 0.106l1.998 3.392c0.039 0.063 0.073 0.129 0.099 0.197z"></path>
<path d="M31.683 61.275v2.064h-0.766v-5.504h1.707c0.322-0.006 0.644 0.035 0.953 0.12 0.248 0.067 0.478 0.184 0.674 0.343 0.17 0.149 0.301 0.334 0.383 0.54 0.090 0.224 0.135 0.464 0.13 0.704 0.003 0.241-0.045 0.481-0.142 0.704-0.092 0.211-0.233 0.4-0.413 0.551-0.196 0.166-0.427 0.29-0.678 0.365-0.298 0.091-0.61 0.134-0.923 0.128l-0.926-0.015zM31.683 60.684h0.926c0.201 0.002 0.402-0.026 0.593-0.084 0.158-0.051 0.304-0.131 0.429-0.237 0.115-0.101 0.204-0.226 0.26-0.365 0.063-0.147 0.094-0.304 0.092-0.463 0.009-0.153-0.017-0.306-0.077-0.448s-0.151-0.271-0.268-0.376c-0.292-0.218-0.66-0.323-1.030-0.295h-0.926v2.269z"></path>
<path d="M41.974 63.347h-0.605c-0.061 0.002-0.12-0.016-0.169-0.051-0.043-0.034-0.078-0.078-0.1-0.128l-0.521-1.331h-2.615l-0.54 1.331c-0.020 0.049-0.053 0.091-0.096 0.124-0.049 0.037-0.11 0.057-0.172 0.055h-0.605l2.297-5.511h0.796l2.328 5.511zM38.184 61.301h2.159l-0.911-2.243c-0.070-0.169-0.127-0.342-0.172-0.518l-0.088 0.288c-0.027 0.088-0.057 0.168-0.084 0.233l-0.903 2.24z"></path>
<path d="M45.281 57.861c0.046 0.024 0.085 0.058 0.115 0.099l3.35 4.154c0-0.066 0-0.131 0-0.193s0-0.124 0-0.182v-3.903h0.685v5.511h-0.383c-0.054 0.002-0.108-0.010-0.157-0.033-0.047-0.026-0.089-0.061-0.123-0.102l-3.346-4.151c0.004 0.063 0.004 0.126 0 0.19 0 0.062 0 0.117 0 0.168v3.928h-0.685v-5.511h0.406c0.047-0.001 0.094 0.007 0.138 0.026z"></path>
<path d="M55.074 61.155v2.188h-0.766v-2.188l-2.117-3.319h0.685c0.059-0.003 0.117 0.013 0.165 0.047 0.042 0.035 0.077 0.077 0.103 0.124l1.325 2.141c0.054 0.091 0.1 0.175 0.138 0.255s0.069 0.157 0.096 0.233l0.1-0.237c0.037-0.087 0.081-0.171 0.13-0.252l1.305-2.156c0.028-0.043 0.061-0.082 0.1-0.117 0.045-0.038 0.104-0.057 0.165-0.055h0.693l-2.121 3.334z"></path>
<path d="M23.942 48.587c0.333 0.040 0.67 0.073 1.011 0.102 5.166-2.202 9.535-5.805 12.563-10.36s4.58-9.858 4.461-15.249l-5.693-5.424c1.157 5.739 0.616 11.671-1.564 17.134s-5.912 10.239-10.779 13.796z"></path>
<path d="M21.909 48.335l0.153 0.029c5.201-3.544 9.166-8.493 11.383-14.207s2.583-11.93 1.052-17.845l-8.108-7.725c3.28 6.35 4.6 13.456 3.807 20.492s-3.666 13.714-8.286 19.256z"></path>
<path d="M49.408 29.449c-1.377 5.923-4.723 11.264-9.54 15.231-1.407 1.165-2.924 2.203-4.533 3.1 3.922-1.098 7.528-3.040 10.538-5.676s5.345-5.895 6.824-9.526l-3.289-3.129z"></path>
<path d="M48.118 28.577l-4.682-4.461c-0.089 5.086-1.607 10.056-4.395 14.394s-6.744 7.885-11.458 10.273h0.023c1.050-0 2.1-0.060 3.143-0.179 4.405-1.713 8.297-4.438 11.328-7.933s5.106-7.65 6.041-12.095z"></path>
<path d="M22.587 5.329l-5.586-5.329c-4.993 1.838-9.288 5.070-12.321 9.272s-4.665 9.179-4.68 14.279v0c0.019 5.635 2.010 11.104 5.658 15.54s8.745 7.586 14.483 8.952c5.123-5.947 8.122-13.294 8.562-20.976s-1.702-15.297-6.116-21.739z"></path>
<path d="M61.023 27.757c-0.020-6.686-2.817-13.093-7.779-17.821s-11.687-7.392-18.705-7.412c-3.243-0.003-6.458 0.567-9.483 1.681l34.198 32.582c1.171-2.88 1.771-5.942 1.769-9.031z"></path>
</symbol>

<symbol id="logo-4" viewBox="0 0 119 64">
<path d="M18.459 19.097h-0.004c-3.367 0-6.097 2.66-6.097 5.941v0.004c0 3.281 2.73 5.941 6.097 5.941h0.004c3.367 0 6.097-2.66 6.097-5.941v-0.004c0-3.281-2.73-5.941-6.097-5.941z"></path>
<path d="M63.459 17.197c-0.010-4.558-1.871-8.926-5.178-12.149s-7.788-5.038-12.465-5.049v0c-4.678 0.008-9.162 1.823-12.471 5.046s-5.171 7.593-5.181 12.151v25.132c0 0 35.291-3.83 35.294-25.128v-0.004z"></path>
<path d="M-0 50.578c0.009 3.171 1.305 6.21 3.605 8.453s5.419 3.507 8.673 3.516c3.253-0.009 6.371-1.273 8.671-3.515s3.597-5.28 3.607-8.45v-17.487c0 0-24.556 2.667-24.556 17.483zM12.278 53.712c-0.636 0-1.258-0.184-1.786-0.528s-0.941-0.834-1.184-1.406-0.307-1.202-0.183-1.81c0.124-0.608 0.43-1.166 0.88-1.604s1.023-0.737 1.646-0.857c0.624-0.121 1.27-0.059 1.858 0.178s1.090 0.639 1.443 1.154c0.353 0.515 0.542 1.121 0.542 1.741 0.002 0.412-0.080 0.821-0.241 1.203s-0.397 0.728-0.696 1.021c-0.299 0.292-0.654 0.524-1.045 0.682s-0.81 0.24-1.233 0.24v-0.012z"></path>
<path d="M37.342 51.767h-2.512v2.594h-1.308v-6.349h4.134v1.060h-2.825v1.64h2.512v1.055zM43.63 51.331c0 0.625-0.11 1.173-0.331 1.644s-0.538 0.834-0.95 1.090c-0.41 0.256-0.881 0.384-1.413 0.384-0.526 0-0.996-0.127-1.408-0.379s-0.733-0.613-0.959-1.081c-0.227-0.471-0.342-1.012-0.344-1.622v-0.314c0-0.625 0.112-1.175 0.336-1.648 0.227-0.477 0.545-0.842 0.955-1.095 0.413-0.256 0.884-0.384 1.413-0.384s0.999 0.128 1.408 0.384c0.413 0.253 0.731 0.618 0.955 1.095 0.227 0.474 0.34 1.022 0.34 1.644v0.283zM42.304 51.044c0-0.666-0.119-1.172-0.358-1.517s-0.578-0.519-1.020-0.519c-0.439 0-0.778 0.171-1.016 0.514-0.238 0.34-0.359 0.84-0.362 1.5v0.31c0 0.648 0.119 1.151 0.358 1.509s0.581 0.536 1.029 0.536c0.439 0 0.776-0.171 1.012-0.514 0.235-0.346 0.355-0.849 0.358-1.509v-0.31zM47.872 52.696c0-0.247-0.087-0.436-0.262-0.567-0.174-0.134-0.488-0.273-0.942-0.419-0.453-0.148-0.813-0.294-1.077-0.436-0.721-0.389-1.081-0.914-1.081-1.574 0-0.343 0.096-0.648 0.288-0.916 0.195-0.27 0.472-0.481 0.833-0.632 0.363-0.151 0.77-0.227 1.221-0.227 0.453 0 0.858 0.083 1.212 0.249 0.355 0.163 0.629 0.394 0.824 0.693 0.198 0.299 0.297 0.64 0.297 1.020h-1.308c0-0.291-0.092-0.516-0.275-0.676-0.183-0.163-0.44-0.244-0.772-0.244-0.32 0-0.568 0.068-0.746 0.205-0.177 0.134-0.266 0.311-0.266 0.532 0 0.206 0.103 0.379 0.31 0.519 0.209 0.14 0.516 0.27 0.92 0.392 0.744 0.224 1.286 0.501 1.626 0.833s0.51 0.744 0.51 1.238c0 0.55-0.208 0.981-0.623 1.295-0.416 0.311-0.975 0.467-1.679 0.467-0.488 0-0.933-0.089-1.334-0.266-0.401-0.18-0.708-0.426-0.92-0.737-0.209-0.311-0.314-0.672-0.314-1.081h1.312c0 0.701 0.419 1.051 1.256 1.051 0.311 0 0.554-0.063 0.728-0.188 0.174-0.128 0.262-0.305 0.262-0.532zM54.853 49.073h-1.945v5.289h-1.308v-5.289h-1.919v-1.060h5.172v1.060zM59.423 51.611h-2.512v1.701h2.948v1.051h-4.256v-6.349h4.247v1.060h-2.939v1.513h2.512v1.025zM62.977 52.038h-1.042v2.324h-1.308v-6.349h2.359c0.75 0 1.329 0.167 1.735 0.501s0.61 0.807 0.61 1.417c0 0.433-0.094 0.795-0.283 1.086-0.186 0.288-0.469 0.517-0.85 0.689l1.374 2.595v0.061h-1.404l-1.19-2.324zM61.935 50.978h1.055c0.328 0 0.583-0.083 0.763-0.249 0.18-0.169 0.27-0.4 0.27-0.693 0-0.299-0.086-0.535-0.257-0.706-0.169-0.172-0.429-0.257-0.781-0.257h-1.051v1.906zM69.862 52.125v2.237h-1.308v-6.349h2.477c0.477 0 0.895 0.087 1.256 0.262 0.363 0.174 0.642 0.423 0.837 0.745 0.195 0.32 0.292 0.685 0.292 1.095 0 0.622-0.214 1.113-0.641 1.474-0.424 0.358-1.013 0.536-1.766 0.536h-1.147zM69.862 51.065h1.168c0.346 0 0.609-0.081 0.789-0.244 0.183-0.163 0.275-0.395 0.275-0.698 0-0.311-0.092-0.563-0.275-0.754s-0.436-0.291-0.759-0.297h-1.199v1.993zM78.138 51.611h-2.512v1.701h2.948v1.051h-4.256v-6.349h4.247v1.060h-2.939v1.513h2.512v1.025zM84.208 49.073h-1.945v5.289h-1.308v-5.289h-1.918v-1.060h5.171v1.060zM88.778 51.611h-2.512v1.701h2.948v1.051h-4.256v-6.349h4.247v1.060h-2.939v1.513h2.512v1.025zM92.332 52.038h-1.042v2.324h-1.308v-6.349h2.359c0.75 0 1.329 0.167 1.735 0.501s0.611 0.807 0.611 1.417c0 0.433-0.094 0.795-0.283 1.086-0.186 0.288-0.47 0.517-0.85 0.689l1.373 2.595v0.061h-1.404l-1.19-2.324zM91.29 50.978h1.055c0.329 0 0.583-0.083 0.763-0.249 0.18-0.169 0.27-0.4 0.27-0.693 0-0.299-0.086-0.535-0.257-0.706-0.168-0.172-0.429-0.257-0.781-0.257h-1.051v1.906zM98.977 52.696c0-0.247-0.087-0.436-0.262-0.567-0.174-0.134-0.488-0.273-0.942-0.419-0.454-0.148-0.813-0.294-1.077-0.436-0.721-0.389-1.081-0.914-1.081-1.574 0-0.343 0.096-0.648 0.288-0.916 0.195-0.27 0.472-0.481 0.833-0.632 0.363-0.151 0.77-0.227 1.221-0.227 0.454 0 0.857 0.083 1.212 0.249 0.355 0.163 0.629 0.394 0.824 0.693 0.198 0.299 0.296 0.64 0.296 1.020h-1.308c0-0.291-0.092-0.516-0.275-0.676-0.183-0.163-0.44-0.244-0.772-0.244-0.32 0-0.568 0.068-0.746 0.205-0.177 0.134-0.266 0.311-0.266 0.532 0 0.206 0.103 0.379 0.31 0.519 0.209 0.14 0.516 0.27 0.92 0.392 0.744 0.224 1.286 0.501 1.626 0.833s0.51 0.744 0.51 1.238c0 0.55-0.208 0.981-0.624 1.295-0.416 0.311-0.975 0.467-1.679 0.467-0.489 0-0.933-0.089-1.334-0.266-0.401-0.18-0.708-0.426-0.92-0.737-0.209-0.311-0.314-0.672-0.314-1.081h1.312c0 0.701 0.419 1.051 1.256 1.051 0.311 0 0.554-0.063 0.728-0.188 0.174-0.128 0.262-0.305 0.262-0.532z"></path>
</symbol>

<symbol id="logo-5" viewBox="0 0 80 64">
<path d="M6.111 53.485c0.313 0.389 0.48 0.876 0.471 1.376 0.016 0.326-0.041 0.652-0.168 0.953s-0.319 0.569-0.562 0.786c-0.608 0.461-1.362 0.687-2.122 0.635h-3.73v-8.722h3.654c0.721-0.048 1.437 0.157 2.024 0.579 0.236 0.198 0.423 0.449 0.546 0.732s0.179 0.591 0.163 0.9c0.021 0.481-0.129 0.954-0.424 1.334-0.284 0.347-0.675 0.587-1.112 0.682 0.495 0.091 0.942 0.355 1.26 0.746zM1.736 52.168h1.562c0.355 0.026 0.707-0.076 0.993-0.29 0.117-0.107 0.208-0.239 0.267-0.387s0.082-0.307 0.069-0.465c0.011-0.158-0.013-0.316-0.070-0.463s-0.146-0.28-0.261-0.389c-0.294-0.219-0.658-0.324-1.023-0.294h-1.536v2.288zM4.443 55.513c0.125-0.109 0.224-0.246 0.288-0.4s0.092-0.32 0.081-0.487c0.010-0.168-0.020-0.336-0.085-0.491s-0.166-0.293-0.293-0.403c-0.306-0.228-0.681-0.339-1.061-0.315h-1.638v2.399h1.659c0.373 0.022 0.743-0.085 1.048-0.302z"></path>
<path d="M13.58 57.234l-2.033-3.409h-0.764v3.409h-1.748v-8.722h3.31c0.834-0.058 1.659 0.207 2.304 0.741 0.463 0.473 0.742 1.097 0.787 1.759s-0.147 1.318-0.541 1.85c-0.408 0.47-0.966 0.783-1.579 0.886l2.164 3.485h-1.901zM10.783 52.637h1.43c0.993 0 1.489-0.44 1.489-1.321 0.010-0.18-0.017-0.36-0.080-0.529s-0.16-0.322-0.285-0.452c-0.314-0.262-0.718-0.389-1.125-0.354h-1.447l0.017 2.654z"></path>
<path d="M23.136 55.478h-3.484l-0.615 1.755h-1.833l3.2-8.624h1.982l3.187 8.624h-1.833l-0.603-1.755zM22.669 54.158l-1.273-3.681-1.273 3.681h2.546z"></path>
<path d="M35.099 57.234h-1.736l-3.892-5.931v5.931h-1.731v-8.722h1.731l3.892 5.965v-5.965h1.736v8.722z"></path>
<path d="M45.004 55.146c-0.359 0.658-0.906 1.194-1.57 1.538-0.755 0.383-1.594 0.572-2.44 0.55h-3.089v-8.722h3.089c0.845-0.022 1.682 0.162 2.44 0.537 0.664 0.336 1.212 0.866 1.57 1.521 0.357 0.709 0.543 1.493 0.543 2.288s-0.186 1.579-0.543 2.288zM43.018 54.938c0.495-0.579 0.768-1.318 0.768-2.081s-0.272-1.502-0.768-2.081c-0.599-0.525-1.38-0.791-2.173-0.741h-1.205v5.645h1.205c0.793 0.050 1.574-0.217 2.173-0.741z"></path>
<path d="M24.223 0c0 0 22.402 8.492 21.927 20.779v20.784c0 0-22.385-8.496-21.918-20.784l-0.008-20.779z"></path>
<path d="M66.107 36.697c4.231-2.923 9.125-4.734 14.233-5.266v-6.506c-5.886 2.278-10.88 6.408-14.233 11.772z"></path>
<path d="M63.565 38.657c3.463-7.001 9.466-12.403 16.775-15.096v-18.747c0 0-31.904 12.096-31.229 29.595v29.59c0 0 1.422-0.541 3.658-1.555 0-0.946 0-1.9 0.102-2.859 0.66-8.124 4.507-15.652 10.694-20.929z"></path>
<path d="M60.531 49.65c0.167-2.052 0.541-4.082 1.116-6.059-3.852 4.557-6.186 10.212-6.671 16.169-0.047 0.562-0.072 1.125-0.085 1.704 1.812-0.874 3.921-1.964 6.136-3.247-0.565-2.818-0.732-5.703-0.496-8.568z"></path>
<path d="M61.8 49.757c-0.212 2.592-0.080 5.202 0.395 7.759 8.716-5.236 18.511-13.328 18.133-23.106v-0.852c-6.228 0.7-12.054 3.433-16.584 7.78-1.061 2.694-1.716 5.532-1.944 8.419z"></path>
</symbol>

<symbol id="logo-6" viewBox="0 0 124 64">
<path d="M62.248 29.709c-0.581-0.849-0.86-1.852-0.794-2.862v-4.15c0-1.272 0.263-2.239 0.789-2.9s1.43-0.991 2.711-0.988c1.204 0 2.059 0.281 2.564 0.844 0.551 0.718 0.82 1.596 0.758 2.482v0.975h-2.154v-0.988c0.008-0.323-0.013-0.647-0.062-0.967-0.031-0.219-0.139-0.421-0.308-0.574-0.221-0.165-0.5-0.245-0.78-0.224-0.295-0.021-0.588 0.063-0.82 0.236-0.188 0.169-0.313 0.391-0.357 0.633-0.062 0.339-0.090 0.682-0.085 1.026v5.036c-0.034 0.486 0.061 0.972 0.276 1.414 0.107 0.15 0.256 0.268 0.43 0.343s0.366 0.102 0.556 0.079c0.276 0.022 0.55-0.060 0.762-0.228 0.176-0.165 0.288-0.38 0.321-0.612 0.050-0.334 0.073-0.671 0.067-1.009v-1.021h2.154v0.933c0.061 0.923-0.201 1.84-0.745 2.609-0.495 0.616-1.338 0.924-2.577 0.924s-2.176-0.329-2.707-1.013z"></path>
<path d="M71.215 29.751c-0.544-0.646-0.816-1.587-0.816-2.833v-4.365c0-1.233 0.272-2.166 0.816-2.799s1.454-0.948 2.729-0.945c1.266 0 2.172 0.315 2.716 0.945 0.544 0.633 0.82 1.566 0.82 2.799v4.365c0 1.233-0.276 2.178-0.829 2.828s-1.454 0.975-2.707 0.975c-1.253 0-2.18-0.329-2.729-0.971zM74.947 28.704c0.195-0.405 0.284-0.848 0.259-1.292v-5.344c0.025-0.436-0.062-0.87-0.254-1.267-0.109-0.153-0.262-0.273-0.44-0.348s-0.375-0.1-0.568-0.074c-0.193-0.026-0.391 0-0.569 0.075s-0.332 0.195-0.443 0.347c-0.196 0.395-0.285 0.831-0.259 1.267v5.37c-0.027 0.444 0.062 0.888 0.259 1.292 0.126 0.136 0.281 0.245 0.454 0.32s0.363 0.113 0.553 0.113c0.191 0 0.38-0.039 0.553-0.113s0.329-0.184 0.454-0.32v-0.025z"></path>
<path d="M80.070 18.936h2.319l1.743 8.054 1.784-8.054h2.256l0.228 11.625h-1.668l-0.178-8.079-1.721 8.079h-1.338l-1.784-8.108-0.165 8.108h-1.686l0.21-11.625z"></path>
<path d="M90.999 18.936h3.612c2.081 0 3.121 1.1 3.121 3.301 0 2.108-1.095 3.16-3.286 3.157h-1.231v5.166h-2.23l0.013-11.625zM94.085 23.905c0.22 0.027 0.444 0.007 0.656-0.056s0.406-0.169 0.571-0.311c0.256-0.393 0.368-0.854 0.321-1.313 0.012-0.355-0.024-0.709-0.107-1.055-0.032-0.116-0.088-0.224-0.164-0.319s-0.172-0.175-0.282-0.234c-0.309-0.14-0.652-0.204-0.994-0.186h-0.865v3.474h0.865z"></path>
<path d="M100.948 18.936h2.394l2.457 11.625h-2.078l-0.486-2.68h-2.136l-0.499 2.68h-2.109l2.457-11.625zM102.994 26.534l-0.834-4.879-0.834 4.879h1.668z"></path>
<path d="M107.783 18.936h1.561l2.988 6.631v-6.631h1.85v11.625h-1.485l-3.005-6.922v6.922h-1.913l0.004-11.625z"></path>
<path d="M118.516 26.129l-2.484-7.176h2.091l1.516 4.61 1.422-4.61h2.047l-2.452 7.176v4.432h-2.14v-4.432z"></path>
<path d="M65.69 35.644v0.608h-1.819v4.724h-0.762v-4.724h-1.828v-0.608h4.41z"></path>
<path d="M71.393 40.976h-0.588c-0.060 0.004-0.119-0.015-0.165-0.051-0.044-0.031-0.079-0.073-0.098-0.122l-0.526-1.266h-2.524l-0.526 1.266c-0.015 0.053-0.042 0.102-0.080 0.144-0.047 0.035-0.105 0.053-0.165 0.051h-0.588l2.23-5.331h0.776l2.256 5.31zM67.701 38.996h2.105l-0.892-2.17c-0.066-0.164-0.121-0.332-0.165-0.502-0.031 0.101-0.058 0.198-0.085 0.283l-0.080 0.224-0.883 2.165z"></path>
<path d="M75.237 40.452c0.14 0.007 0.279 0.007 0.419 0 0.121-0.012 0.24-0.033 0.357-0.063 0.109-0.025 0.216-0.058 0.321-0.097 0.098-0.038 0.196-0.084 0.299-0.131v-1.199h-0.892c-0.022 0.001-0.044-0.002-0.065-0.009s-0.040-0.019-0.056-0.033c-0.015-0.012-0.026-0.027-0.034-0.044s-0.011-0.035-0.011-0.053v-0.409h1.73v2.043c-0.141 0.096-0.29 0.18-0.446 0.253-0.159 0.074-0.325 0.135-0.495 0.182-0.182 0.051-0.369 0.087-0.558 0.11-0.216 0.023-0.433 0.034-0.651 0.034-0.385 0.003-0.766-0.064-1.124-0.198-0.334-0.127-0.637-0.317-0.892-0.557-0.248-0.243-0.444-0.53-0.575-0.844-0.141-0.353-0.21-0.729-0.205-1.106-0.005-0.38 0.063-0.758 0.201-1.115 0.128-0.316 0.324-0.603 0.575-0.844 0.254-0.24 0.558-0.428 0.892-0.553 0.382-0.136 0.787-0.203 1.195-0.198 0.208-0 0.415 0.015 0.62 0.047 0.181 0.028 0.359 0.073 0.531 0.135 0.156 0.056 0.305 0.126 0.446 0.211 0.137 0.083 0.266 0.176 0.388 0.279l-0.214 0.329c-0.017 0.030-0.042 0.055-0.072 0.073s-0.066 0.028-0.102 0.028c-0.049-0.002-0.097-0.016-0.138-0.042-0.067-0.034-0.138-0.076-0.218-0.127-0.095-0.056-0.195-0.104-0.299-0.144-0.133-0.050-0.27-0.090-0.41-0.118-0.187-0.033-0.376-0.048-0.566-0.047-0.294-0.003-0.586 0.047-0.861 0.148-0.248 0.094-0.472 0.238-0.655 0.422-0.185 0.192-0.326 0.417-0.415 0.663-0.199 0.578-0.199 1.2 0 1.777 0.098 0.251 0.249 0.479 0.446 0.671 0.183 0.183 0.405 0.327 0.651 0.422 0.284 0.092 0.584 0.128 0.883 0.105z"></path>
<path d="M82.344 40.367h2.435v0.608h-3.179v-5.331h0.763l-0.018 4.724z"></path>
<path d="M87.312 40.975h-0.763v-5.331h0.763v5.331z"></path>
<path d="M90.148 35.669c0.045 0.025 0.085 0.058 0.116 0.097l3.26 4.019c-0.004-0.063-0.004-0.127 0-0.19 0-0.059 0-0.118 0-0.173v-3.799h0.664v5.353h-0.383c-0.057 0.004-0.114-0.006-0.165-0.029-0.046-0.027-0.087-0.061-0.12-0.101l-3.255-4.015c0 0.063 0 0.122 0 0.181s0 0.114 0 0.165v3.799h-0.638v-5.332h0.397c0.043 0 0.086 0.009 0.125 0.025z"></path>
<path d="M99.802 35.644v0.587h-2.702v1.76h2.189v0.566h-2.189v1.82h2.702v0.587h-3.487v-5.319h3.487z"></path>
<path d="M19.901 2.719l33.857 9.101v31.891l-33.857-9.097v-31.896zM17.729 0v36.163l38.196 10.27v-36.159l-38.196-10.275z"></path>
<path d="M38.2 63.221l-38.2-10.279v-36.16l38.2 10.275v36.164z"></path>
<path d="M18.362 2.309l33.416 8.987-14.211 13.457-33.42-8.991 14.215-13.453zM17.729 0l-17.729 16.783 38.2 10.274 17.724-16.783-38.196-10.274z"></path>
<path d="M40.35 61.187l15.575-14.749-15.575-4.192v18.94z"></path>
</symbol>

<symbol id="smartphone" viewBox="0 0 40 64">
<path d="M34 0h-28c-3.309 0-6 2.691-6 6v52c0 3.309 2.691 6 6 6h28c3.309 0 6-2.691 6-6v-52c0-3.309-2.691-6-6-6zM6 4h28c1.103 0 2 0.896 2 2v42h-32v-42c0-1.104 0.896-2 2-2zM34 60h-28c-1.104 0-2-0.896-2-2v-6h32v6c0 1.104-0.897 2-2 2z"></path>
<path d="M9.414 54.956c0.781 0.73 0.781 1.912 0 2.641s-2.047 0.73-2.828 0c-0.781-0.729-0.781-1.912 0-2.641s2.047-0.729 2.828 0z"></path>
</symbol>

<symbol id="twitter" viewBox="0 0 71 64">
<path d="M71.111 9.951c-2.644 1.16-5.462 1.929-8.4 2.302 3.022-1.804 5.329-4.64 6.413-8.058-2.817 1.68-5.929 2.867-9.244 3.529-2.676-2.849-6.489-4.613-10.649-4.613-8.071 0-14.569 6.551-14.569 14.582 0 1.156 0.098 2.267 0.338 3.324-12.12-0.591-22.844-6.4-30.049-15.249-1.258 2.182-1.996 4.68-1.996 7.369 0 5.049 2.6 9.524 6.476 12.116-2.342-0.044-4.64-0.724-6.587-1.796 0 0.044 0 0.102 0 0.16 0 7.084 5.053 12.969 11.68 14.324-1.187 0.325-2.48 0.48-3.822 0.48-0.933 0-1.876-0.053-2.76-0.249 1.889 5.773 7.249 10.018 13.622 10.156-4.96 3.88-11.258 6.218-18.076 6.218-1.196 0-2.342-0.053-3.489-0.2 6.458 4.165 14.111 6.542 22.364 6.542 26.827 0 41.493-22.222 41.493-41.484 0-0.644-0.022-1.267-0.053-1.884 2.894-2.053 5.324-4.618 7.307-7.569z"></path>
</symbol>

<symbol id="close-button" viewBox="0 0 64 64">
<path d="M64 6.446l-6.446-6.446-25.554 25.554-25.554-25.554-6.446 6.446 25.554 25.554-25.554 25.554 6.446 6.446 25.554-25.554 25.554 25.554 6.446-6.446-25.554-25.554 25.554-25.554z"></path>

<symbol id="telegram" viewBox="0 0 64 64">
<path d="M64 0l-64 36 20.453 7.575 31.547-29.575-23.995 32.372 0.019 0.007-0.024-0.007v17.628l11.47-13.382 14.53 5.382 10-56z"></path>
</symbol>

<symbol id="name-icon" viewBox="0 0 64 64">
<path d="M32 32c8.84 0 16-7.16 16-16s-7.16-16-16-16c-8.84 0-16 7.16-16 16s7.16 16 16 16zM32 40c-10.68 0-32 5.36-32 16v4c0 2.2 1.8 4 4 4h56c2.2 0 4-1.8 4-4v-4c0-10.64-21.32-16-32-16z"></path>
</symbol>

<symbol id="tel-icon" viewBox="0 0 64 64">
<path d="M54.839 41.703l-8.403-0.959c-2.018-0.232-4.003 0.463-5.426 1.886l-6.087 6.087c-9.362-4.764-17.037-12.406-21.801-21.801l6.12-6.12c1.423-1.423 2.117-3.407 1.886-5.426l-0.959-8.337c-0.397-3.341-3.209-5.856-6.583-5.856h-5.723c-3.738 0-6.848 3.11-6.617 6.848 1.753 28.253 24.349 50.815 52.568 52.568 3.738 0.232 6.848-2.878 6.848-6.616v-5.723c0.033-3.341-2.481-6.153-5.823-6.55z"></path>
</symbol>

<symbol id="email-icon" viewBox="0 0 85 64">
<path d="M74.667 0h-64c-4.4 0-7.96 3.6-7.96 8l-0.040 48c0 4.4 3.6 8 8 8h64c4.4 0 8-3.6 8-8v-48c0-4.4-3.6-8-8-8zM73.067 17l-28.28 17.68c-1.28 0.8-2.96 0.8-4.24 0l-28.28-17.68c-1-0.64-1.6-1.72-1.6-2.88 0-2.68 2.92-4.28 5.2-2.88l26.8 16.76 26.8-16.76c2.28-1.4 5.2 0.2 5.2 2.88 0 1.16-0.6 2.24-1.6 2.88z"></path>
</symbol>

<symbol id="check-mark" viewBox="0 0 83 64">
<path d="M12.525 30.411l-0.44-0.42-6.614 6.265 23.302 22.229 48.955-46.701-6.57-6.268-42.384 40.395-16.248-15.5z"></path>
</symbol>

<symbol id="icon-menu-mobile" viewBox="0 0 48 32">
<path d="M0 5.333v-5.333h48v5.333h-48zM0 18.667h48v-5.333h-48v5.333zM0 32h48v-5.333h-48v5.333z"></path>
</symbol>

</defs>
</svg>
